<svg id="Livello_1" data-name="Livello 1" xmlns="http://www.w3.org/2000/svg" viewBox="0 0 127.97 101.35"><defs><style>.cls-1{fill:red;}</style></defs><g id="hands"><path id="Tracciato_3682" data-name="Tracciato 3682" class="cls-1" d="M64,64a5.75,5.75,0,1,0-5.8-5.8A5.72,5.72,0,0,0,64,64Zm0-7.7a2,2,0,1,1-2,2h0a2,2,0,0,1,2-2Z" transform="translate(-0.01 -13.28)"/><path id="Tracciato_3683" data-name="Tracciato 3683" class="cls-1" d="M127.9,105.51l-11.8-33.9a3.12,3.12,0,0,0-3.1-2.1l-1.6-5.7,6.1-12.4a13.07,13.07,0,0,0-5.5-17.3l-.8-.4-4.6-4.2a6.28,6.28,0,0,0-8.8.3l-.1.1a42.62,42.62,0,0,0-43.5-15.5,1.9,1.9,0,0,0-1.4,2.3,1.83,1.83,0,0,0,2.3,1.4,39.23,39.23,0,0,1,40.7,15.3l-2.4,5.5-1-1.9a3.18,3.18,0,0,0-1.1-1.2,34.1,34.1,0,0,0-54.8,0A3.18,3.18,0,0,0,35.4,37l-1,1.9L32,33.41a39.79,39.79,0,0,1,15-12.6,1.88,1.88,0,1,0-1.6-3.4,42.75,42.75,0,0,0-15.3,12.3,6.2,6.2,0,0,0-8.8-.5l-.1.1-4.6,4.2L16,34a13.1,13.1,0,0,0-5.5,17.3l6.1,12.4L15,69.41a3.16,3.16,0,0,0-3.1,2.1l-11.8,34a2,2,0,0,0,1.2,2.4,2,2,0,0,0,2.4-1.2l11.6-33.3L31,78.81l-11.6,33.3a2,2,0,0,0,1.2,2.4,1.86,1.86,0,0,0,2.4-1.2l9.7-28A42.55,42.55,0,0,0,81,95.51,2,2,0,0,0,82,93a1.87,1.87,0,0,0-2.5-1h0A39,39,0,0,1,34,81.21l.6-1.8a3.14,3.14,0,0,0-1.2-3.7l1-2.6a34.12,34.12,0,0,0,59.1,0l1,2.6a3.14,3.14,0,0,0-1.2,3.7l.6,1.8a40.31,40.31,0,0,1-7.1,6.6,1.87,1.87,0,1,0,2.1,3.1H89a48.44,48.44,0,0,0,6.4-5.6l9.7,28a1.9,1.9,0,0,0,3.6-1.2h0L97.1,78.81l15.7-5.4,11.6,33.3a1.9,1.9,0,0,0,2.4,1.2,1.94,1.94,0,0,0,1.1-2.4ZM93.7,44.71a2.22,2.22,0,0,0,1.9-1.3L100.1,33a2.42,2.42,0,0,1,3.3-1.3,1.79,1.79,0,0,1,.7.5l4.7,4.4a6.38,6.38,0,0,0,1.4.8,9.34,9.34,0,0,1,3.9,12.4l-6.5,13.1a1.5,1.5,0,0,0-.1,1.3l1.8,6.5L98,74.61,86.4,45.11a4.12,4.12,0,0,1,1.9-5.2l1.1-.6,2.3,4.2a2.2,2.2,0,0,0,2,1.2Zm-50.9,7.5a51.18,51.18,0,0,1,5.6-1.5,10.65,10.65,0,0,0-.9,6.1c.9,6.1.8,6.1,1,7l-9.8-1.3Zm10.3,12.9a7.26,7.26,0,0,1-1-2.8l-.9-6a6.84,6.84,0,0,1,1.6-5.5,3.7,3.7,0,0,1,2.2-1.2,74.31,74.31,0,0,1,7.8-.5,71.07,71.07,0,0,1,10.3.5,3.48,3.48,0,0,1,2.2,1.2,6.84,6.84,0,0,1,1.6,5.5l-.9,6a7.34,7.34,0,0,1-7.3,6.3H59.5A7.3,7.3,0,0,1,53.1,65.11Zm26.5-14.4a51.18,51.18,0,0,1,5.6,1.5l4,10.2-9.8,1.3c.1-.3.1-.6.2-1l.9-6a10.44,10.44,0,0,0-.9-6ZM64,25.91a30.75,30.75,0,0,1,23,10.5l-.4.2a7.83,7.83,0,0,0-3.6,9.8l.5,1.3A76.27,76.27,0,0,0,75.2,46a83.26,83.26,0,0,0-22.3,0,76.27,76.27,0,0,0-8.3,1.7l.5-1.3a7.8,7.8,0,0,0-3.6-9.8l-.5-.2A30.4,30.4,0,0,1,64,25.91ZM13.8,49.71a9.43,9.43,0,0,1,3.9-12.4,6.38,6.38,0,0,0,1.4-.8l4.7-4.4a2.51,2.51,0,0,1,3.5.1,3,3,0,0,1,.5.7l4.4,10.4a2.34,2.34,0,0,0,2.9,1.2,2.13,2.13,0,0,0,1.1-1l2.3-4.2,1.1.6a4.09,4.09,0,0,1,1.9,5.2L29.8,74.51l-11.3-3.9,1.8-6.5a2,2,0,0,0-.1-1.3Zm22.5,18.9,1-2.6,13.1,1.8a9.36,9.36,0,0,0,2.9,2.7l3.2,15.1A30.49,30.49,0,0,1,36.3,68.61Zm24.1,17.7-3-14.2a12.25,12.25,0,0,0,1.9.2h9.2a11.08,11.08,0,0,0,1.9-.2l-3,14.2a27.32,27.32,0,0,1-7,0Zm11.2-.7,3.2-15.1a12.42,12.42,0,0,0,2.9-2.7L90.8,66l1,2.6a30.94,30.94,0,0,1-20.2,17Z" transform="translate(-0.01 -13.28)"/></g></svg>