<svg id="parking" xmlns="http://www.w3.org/2000/svg" viewBox="0 0 128.1 128"><defs><style>.cls-1{fill:red;}</style></defs><g id="Raggruppa_3032" data-name="Raggruppa 3032"><g id="Raggruppa_3031" data-name="Raggruppa 3031"><path id="Tracciato_3680" data-name="Tracciato 3680" class="cls-1" d="M121.8,80.5h-6.2v4.1h-3.3l-2.4-15.4a6.31,6.31,0,0,0-6.1-5.3H63.4a6.07,6.07,0,0,0-6.1,5.3L54.9,84.6H51.6V80.5H45.4a6.2,6.2,0,1,0-.2,12.4h6.4V88.8h2.7l-.4,2.4a14.49,14.49,0,0,0-6.4,12v12.4h4.1v4.1a8.11,8.11,0,0,0,1.1,4.1H35.1V57.1a28.87,28.87,0,1,0-12.4,0v66.8H8.3V128H119.8v-4.1h-5.3a8.39,8.39,0,0,0,1.1-4.1v-4.1h4.1V103.3a14.49,14.49,0,0,0-6.4-12l-.4-2.4h2.7V93h6.2a6.2,6.2,0,0,0,.2-12.4c-.1-.1-.1-.1-.2-.1ZM47.5,88.8H45.4a2.05,2.05,0,1,1-.1-4.1h2.2ZM31,123.9H26.9V66.1H31Zm0-62H26.9V57.7c.7,0,1.4.1,2.1.1s1.4-.1,2.1-.1Zm-2.1-8.2A24.8,24.8,0,1,1,53.7,28.9,24.8,24.8,0,0,1,28.9,53.7ZM61.4,69.9a2,2,0,0,1,2-1.7h40.4a2,2,0,0,1,2,1.8l3,19.4a14.08,14.08,0,0,0-3.5-.5H61.9a13.45,13.45,0,0,0-3.5.5Zm-9.8,41.6v-6.2H70.2v6.2ZM64,119.7a4.1,4.1,0,0,1-8.2,0h0v-4.1H64Zm3,4.2a8.39,8.39,0,0,0,1.1-4.1v-4.1h31v4.1a8.11,8.11,0,0,0,1.1,4.1Zm7.3-12.4v-8.3a2.11,2.11,0,0,1,2.1-2.1H90.9a2.11,2.11,0,0,1,2.1,2.1v8.3Zm37.2,8.2a4.1,4.1,0,1,1-8.2,0v-4.1h8.3v4.1Zm4.1-8.2H97v-6.2h18.6Zm-.2-10.3H96.7a6.13,6.13,0,0,0-5.8-4.1H76.4a6.27,6.27,0,0,0-5.8,4.1H51.8a10.37,10.37,0,0,1,10.1-8.3h43.4a10.37,10.37,0,0,1,10.1,8.3Zm6.4-12.4h-2.1V84.7h2.1a2.05,2.05,0,0,1,0,4.1Z" transform="translate(0 0)"/></g></g><g id="Raggruppa_3034" data-name="Raggruppa 3034"><g id="Raggruppa_3033" data-name="Raggruppa 3033"><path id="Tracciato_3681" data-name="Tracciato 3681" class="cls-1" d="M33.05,14.45H20.65v26.8h4.1V31h8.3a8.28,8.28,0,0,0,8.3-8.3A8.39,8.39,0,0,0,33.05,14.45Zm0,12.4h-8.3v-8.3h8.3a4.15,4.15,0,0,1,0,8.3Z" transform="translate(0 0)"/></g></g><g id="Raggruppa_3036" data-name="Raggruppa 3036"><g id="Raggruppa_3035" data-name="Raggruppa 3035"><rect id="Rettangolo_1752" data-name="Rettangolo 1752" class="cls-1" x="65.97" y="81.02" width="27" height="4"/></g></g><g id="Raggruppa_3038" data-name="Raggruppa 3038"><g id="Raggruppa_3037" data-name="Raggruppa 3037"><rect id="Rettangolo_1753" data-name="Rettangolo 1753" class="cls-1" x="97.04" y="81.02" width="4" height="4"/></g></g><g id="Raggruppa_3040" data-name="Raggruppa 3040"><g id="Raggruppa_3039" data-name="Raggruppa 3039"><rect id="Rettangolo_1754" data-name="Rettangolo 1754" class="cls-1" x="123.97" y="123.97" width="4" height="4"/></g></g><g id="Raggruppa_3042" data-name="Raggruppa 3042"><g id="Raggruppa_3041" data-name="Raggruppa 3041"><rect id="Rettangolo_1755" data-name="Rettangolo 1755" class="cls-1" y="123.97" width="4" height="4"/></g></g></svg>